<?xml version="1.0" encoding="UTF-8" standalone="no"?>
<svg xmlns="http://www.w3.org/2000/svg" width="1024" height="500" viewBox="0 0 1024 500">
  <defs>
    <linearGradient id="bg" x1="0" y1="0" x2="1" y2="1">
      <stop offset="0%" stop-color="#108a49"/>
      <stop offset="100%" stop-color="#12b161"/>
    </linearGradient>
  </defs>

  <!-- Background -->
  <rect width="1024" height="500" fill="url(#bg)"/>

  <!-- Decorative shapes -->
  <circle cx="860" cy="-40" r="180" fill="#ffffff" opacity="0.08"/>
  <circle cx="-20" cy="420" r="220" fill="#ffffff" opacity="0.06"/>

  <!-- App mark (from icon) -->
  <g transform="translate(140,120) scale(1.15)" fill="none" stroke="#ffffff" stroke-linecap="round" stroke-linejoin="round">
    <rect x="0" y="0" width="260" height="260" rx="36" ry="36" fill="rgba(255,255,255,0.06)" stroke="none"/>
    <path d="M36 0h168a36 36 0 0 1 36 36v188a0 0 0 0 1 0 0H72a36 36 0 0 0-36 36V36a36 36 0 0 1 36-36z" stroke-width="16"/>
    <path d="M72 0v260" stroke-width="16" opacity="0.45"/>
    <path d="M188 24v72l-22-15-22 15V24" stroke-width="12"/>
    <path d="M96 116h46M96 148h46M96 180h46" stroke-width="12" opacity="0.9"/>
  </g>

  <!-- Title and tagline -->
  <g fill="#ffffff" font-family="Segoe UI, Roboto, Helvetica, Arial, sans-serif">
    <text x="430" y="220" font-size="56" font-weight="700">Ledger Book</text>
    <text x="430" y="272" font-size="26" opacity="0.92">Simple ledger & payments tracker with optional Drive backup</text>
  </g>
</svg>
